<svg width="15" height="14" viewBox="0 0 15 14" fill="none" xmlns="http://www.w3.org/2000/svg">
<path d="M0.318376 11.0483L2.5106 8.88596C2.94725 8.45704 3.67035 8.47007 4.12221 8.91588L5.22666 10.0049C5.29644 9.96698 5.36866 9.92736 5.4446 9.88533C6.14205 9.5042 7.09663 8.98181 8.10112 7.9904C9.10859 6.9969 9.63876 6.054 10.0264 5.3657C10.0673 5.29278 10.1065 5.22247 10.1452 5.1557L9.40393 4.42573L9.03951 4.06588C8.58695 3.61942 8.57447 2.90647 9.01011 2.4763L11.2023 0.31374C11.638 -0.11582 12.3614 -0.102788 12.8139 0.343665L13.4318 0.956512L13.4149 0.973043C13.6221 1.23375 13.7952 1.53445 13.924 1.85871C14.0428 2.16736 14.1167 2.4619 14.1505 2.75704C14.44 5.12381 13.3434 7.28685 10.3673 10.2221C6.25342 14.2791 2.93819 13.9726 2.79517 13.9576C2.48368 13.9209 2.18516 13.8475 1.88178 13.7313C1.55586 13.6057 1.25118 13.4352 0.986993 13.2314L0.973494 13.2432L0.347576 12.6387C-0.104041 12.1923 -0.117051 11.4791 0.318376 11.0483Z" fill="white"/>
</svg>
