<svg width="11" height="13" viewBox="0 0 11 13" fill="none" xmlns="http://www.w3.org/2000/svg">
<path d="M5.09782 0C2.30263 0 0.0283203 2.14706 0.0283203 4.78613C0.0283203 5.4745 0.177564 6.13173 0.471683 6.73975C1.7392 9.35819 4.16938 12.1227 4.88417 12.9075C4.93772 12.9662 5.0158 13 5.09796 13C5.18012 13 5.25819 12.9662 5.31175 12.9075C6.02626 12.1228 8.45644 9.35845 9.72437 6.73975C10.0186 6.13173 10.1677 5.4745 10.1677 4.78613C10.1675 2.14706 7.89314 0 5.09782 0ZM5.09782 7.27205C3.64583 7.27205 2.46442 6.15675 2.46442 4.78599C2.46442 3.41511 3.64583 2.2998 5.09782 2.2998C6.54981 2.2998 7.73122 3.41511 7.73122 4.78599C7.73136 6.15675 6.54995 7.27205 5.09782 7.27205Z" fill="white"/>
</svg>
