<svg width="27" height="26" viewBox="0 0 27 26" fill="none" xmlns="http://www.w3.org/2000/svg">
<ellipse cx="13.691" cy="13" rx="13.1812" ry="13" fill="#31D14C"/>
<path d="M13.6912 6.5C10.0713 6.5 7.10059 9.42984 7.10059 13C7.10059 14.1783 7.4227 15.3253 8.03353 16.3288L7.10059 19.5L10.3159 18.5799C11.3335 19.1823 12.4965 19.5 13.6912 19.5C17.3111 19.5 20.2818 16.5702 20.2818 13C20.2818 9.42984 17.3111 6.5 13.6912 6.5ZM17.8118 15.7465L17.5051 16.0489C17.0713 16.4767 16.0736 16.4428 15.4325 16.3207C13.3008 15.9147 10.8156 13.5389 10.3363 11.4814C10.0989 10.4622 10.23 9.57613 10.5727 9.23802L10.8793 8.93562C11.0486 8.76879 11.3235 8.76899 11.4926 8.93562L12.7192 10.1455C12.8011 10.2263 12.846 10.3333 12.846 10.4478C12.846 10.5624 12.8011 10.6695 12.7192 10.75L12.4127 11.0527C12.0748 11.3867 12.0748 11.9293 12.4127 12.2626L14.4384 14.2341C14.7773 14.5684 15.3258 14.5688 15.6652 14.2341L15.9718 13.9318C16.1301 13.7748 16.4258 13.7743 16.5854 13.9318L17.8118 15.1413C17.9783 15.3049 17.9846 15.5759 17.8118 15.7465Z" fill="white"/>
</svg>
