<svg width="27" height="26" viewBox="0 0 27 26" fill="none" xmlns="http://www.w3.org/2000/svg">
<ellipse cx="13.1891" cy="13" rx="13.1812" ry="13" fill="#8A4F9F"/>
<path d="M17.249 12.0594C17.2633 10.4098 15.8387 8.89762 14.0735 8.68851C14.0384 8.6844 14.0002 8.67815 13.9597 8.67154C13.8723 8.65726 13.7819 8.64258 13.6907 8.64258C13.329 8.64258 13.2322 8.89322 13.2068 9.0427C13.182 9.18805 13.2056 9.3101 13.2769 9.40562C13.3967 9.5663 13.6075 9.59482 13.7768 9.61768C13.8264 9.62443 13.8733 9.63072 13.9125 9.6394C15.4984 9.98891 16.0325 10.5384 16.2934 12.0893C16.2998 12.1272 16.3027 12.1739 16.3057 12.2234C16.3171 12.4088 16.3409 12.7945 16.7613 12.7945H16.7613C16.7963 12.7945 16.8339 12.7915 16.8731 12.7856C17.2646 12.7269 17.2524 12.3744 17.2465 12.205C17.2448 12.1573 17.2432 12.1121 17.2473 12.0821C17.2484 12.0746 17.249 12.067 17.249 12.0594Z" fill="white"/>
<path d="M13.5888 8.08377C13.6358 8.08712 13.6803 8.09031 13.7173 8.09591C16.3216 8.49091 17.5193 9.70786 17.8512 12.2965C17.8568 12.3405 17.8577 12.3941 17.8587 12.451C17.862 12.6532 17.8688 13.0739 18.3269 13.0827L18.3411 13.0828C18.4848 13.0828 18.5991 13.0401 18.6809 12.9557C18.8235 12.8086 18.8135 12.59 18.8055 12.4144C18.8035 12.3713 18.8017 12.3307 18.8021 12.2952C18.8353 9.64769 16.5116 7.24697 13.8297 7.15769C13.8185 7.15733 13.8079 7.15791 13.7972 7.1594C13.7919 7.16016 13.7822 7.16111 13.7654 7.16111C13.7387 7.16111 13.7058 7.15882 13.6709 7.15649C13.6287 7.15366 13.5809 7.15039 13.5324 7.15039C13.1053 7.15039 13.0241 7.44979 13.0137 7.62827C12.9898 8.04075 13.3944 8.06979 13.5888 8.08377Z" fill="white"/>
<path d="M17.7252 15.6418C17.6698 15.6001 17.6125 15.5569 17.5589 15.5144C17.2746 15.2887 16.9721 15.0807 16.6795 14.8795C16.6188 14.8378 16.5581 14.796 16.4976 14.7542C16.1228 14.4945 15.7859 14.3684 15.4676 14.3684C15.0389 14.3684 14.6651 14.602 14.3565 15.0627C14.2199 15.267 14.054 15.3663 13.8497 15.3663C13.7288 15.3663 13.5915 15.3322 13.4416 15.2651C12.232 14.7241 11.3682 13.8947 10.8743 12.7998C10.6355 12.2706 10.7129 11.9247 11.1331 11.6432C11.3718 11.4834 11.8159 11.1861 11.7845 10.6166C11.7488 9.96994 10.3021 8.02422 9.69257 7.80323C9.4345 7.70963 9.16334 7.70875 8.88518 7.80105C8.18445 8.03337 7.68159 8.44138 7.43085 8.98089C7.18854 9.5022 7.19948 10.1143 7.46249 10.751C8.22284 12.592 9.29184 14.1971 10.6399 15.5216C11.9595 16.8182 13.5813 17.8803 15.4603 18.6783C15.6297 18.7501 15.8073 18.7893 15.937 18.8179C15.9812 18.8278 16.0194 18.8361 16.0472 18.8436C16.0625 18.8477 16.0783 18.85 16.0941 18.8501L16.1089 18.8502C16.109 18.8502 16.1089 18.8502 16.109 18.8502C16.9928 18.8502 18.0539 18.0537 18.3798 17.1457C18.6654 16.3506 18.144 15.9576 17.7252 15.6418Z" fill="white"/>
<path d="M13.9795 10.1859C13.8282 10.1896 13.5133 10.1973 13.4028 10.5136C13.3511 10.6615 13.3573 10.7898 13.4212 10.8951C13.515 11.0496 13.6947 11.0969 13.8582 11.1229C14.451 11.2167 14.7555 11.5401 14.8164 12.1403C14.8447 12.4202 15.0358 12.6157 15.2812 12.6157H15.2812C15.2993 12.6157 15.3178 12.6146 15.3363 12.6124C15.6314 12.5778 15.7745 12.3639 15.7615 11.9769C15.7662 11.5729 15.5519 11.1143 15.1874 10.7491C14.8215 10.3827 14.3806 10.1763 13.9795 10.1859Z" fill="white"/>
</svg>
