<svg width="27" height="26" viewBox="0 0 27 26" fill="none" xmlns="http://www.w3.org/2000/svg">
<path d="M13.6832 26C20.963 26 26.8644 20.1797 26.8644 13C26.8644 5.8203 20.963 0 13.6832 0C6.4034 0 0.501953 5.8203 0.501953 13C0.501953 20.1797 6.4034 26 13.6832 26Z" fill="url(#paint0_linear)"/>
<path d="M20.6993 10.1442C20.6663 9.40743 20.5455 8.90086 20.3724 8.46197C20.1939 7.99607 19.9193 7.57895 19.5594 7.23219C19.2078 6.88004 18.7821 6.60641 18.3152 6.43308C17.8676 6.2624 17.3567 6.14325 16.6096 6.11077C15.8569 6.07553 15.618 6.06738 13.7091 6.06738C11.8002 6.06738 11.5612 6.07553 10.8114 6.10801C10.0644 6.1405 9.55074 6.25976 9.10582 6.43033C8.6333 6.60641 8.21037 6.87729 7.85878 7.23219C7.50172 7.57895 7.22438 7.99882 7.04852 8.45933C6.87547 8.90086 6.75466 9.40466 6.72172 10.1415C6.68599 10.8838 6.67773 11.1194 6.67773 13.0021C6.67773 14.8848 6.68599 15.1204 6.71893 15.8599C6.75187 16.5967 6.87278 17.1033 7.04584 17.5421C7.22438 18.0081 7.50172 18.4252 7.85878 18.7719C8.21037 19.1241 8.6361 19.3978 9.10302 19.5711C9.55073 19.7417 10.0616 19.8609 10.8088 19.8934C11.5585 19.926 11.7975 19.934 13.7064 19.934C15.6153 19.934 15.8543 19.926 16.6041 19.8934C17.3511 19.8609 17.8648 19.7417 18.3097 19.5711C19.2546 19.2107 20.0016 18.474 20.367 17.5421C20.5399 17.1006 20.6609 16.5967 20.6938 15.8599C20.7268 15.1204 20.735 14.8848 20.735 13.0021C20.735 11.1194 20.7322 10.8838 20.6993 10.1442ZM19.4332 15.8058C19.4028 16.483 19.2875 16.8486 19.1914 17.0924C18.9551 17.6966 18.469 18.176 17.8565 18.409C17.6093 18.5038 17.2358 18.6176 16.5518 18.6473C15.8102 18.6799 15.5878 18.688 13.7119 18.688C11.8359 18.688 11.6107 18.6799 10.8718 18.6473C10.1852 18.6176 9.81436 18.5038 9.56717 18.409C9.26235 18.2979 8.9849 18.1218 8.75969 17.8916C8.52623 17.6667 8.3477 17.3958 8.23505 17.0952C8.13892 16.8514 8.02357 16.483 7.99343 15.8085C7.96038 15.0771 7.95223 14.8576 7.95223 13.0075C7.95223 11.1573 7.96038 10.9352 7.99343 10.2066C8.02357 9.52937 8.13892 9.16364 8.23505 8.91984C8.3477 8.61911 8.52623 8.34558 8.76249 8.12337C8.99037 7.89311 9.26503 7.71704 9.56998 7.60604C9.81717 7.51122 10.1907 7.39747 10.8746 7.36763C11.6161 7.33515 11.8387 7.327 13.7146 7.327C15.5933 7.327 15.8157 7.33515 16.5546 7.36763C17.2413 7.39747 17.6121 7.51122 17.8593 7.60604C18.1641 7.71704 18.4416 7.89311 18.6668 8.12337C18.9002 8.34822 19.0788 8.61911 19.1914 8.91984C19.2875 9.16364 19.4028 9.53197 19.4332 10.2066C19.4661 10.938 19.4744 11.1573 19.4744 13.0075C19.4744 14.8576 19.4661 15.0744 19.4332 15.8058Z" fill="white"/>
<path d="M13.7095 9.43945C11.7155 9.43945 10.0977 11.035 10.0977 13.0016C10.0977 14.9683 11.7155 16.5638 13.7095 16.5638C15.7036 16.5638 17.3213 14.9683 17.3213 13.0016C17.3213 11.035 15.7036 9.43945 13.7095 9.43945ZM13.7095 15.3123C12.4159 15.3123 11.3666 14.2775 11.3666 13.0016C11.3666 11.7257 12.4159 10.6909 13.7095 10.6909C15.0032 10.6909 16.0524 11.7257 16.0524 13.0016C16.0524 14.2775 15.0032 15.3123 13.7095 15.3123Z" fill="white"/>
<path d="M18.3066 9.29842C18.3066 9.75767 17.929 10.13 17.4633 10.13C16.9976 10.13 16.6201 9.75767 16.6201 9.29842C16.6201 8.83909 16.9976 8.4668 17.4633 8.4668C17.929 8.4668 18.3066 8.83909 18.3066 9.29842Z" fill="white"/>
<defs>
<linearGradient id="paint0_linear" x1="28.1826" y1="-7.8" x2="-6.38033" y2="35.5679" gradientUnits="userSpaceOnUse">
<stop stop-color="#833AB4"/>
<stop offset="0.471329" stop-color="#FD1D1D"/>
<stop offset="1" stop-color="#FCB045"/>
</linearGradient>
</defs>
</svg>
