<svg width="27" height="26" viewBox="0 0 27 26" fill="none" xmlns="http://www.w3.org/2000/svg">
<ellipse cx="13.1851" cy="13" rx="13.1812" ry="13" fill="#555AE0"/>
<path d="M16.9852 6.06929L15.162 6.06641C13.1136 6.06641 11.7898 7.40586 11.7898 9.47901V11.0525H9.95661C9.7982 11.0525 9.66992 11.1791 9.66992 11.3353V13.6151C9.66992 13.7713 9.79835 13.8978 9.95661 13.8978H11.7898V19.6503C11.7898 19.8066 11.9181 19.9331 12.0765 19.9331H14.4683C14.6267 19.9331 14.755 19.8064 14.755 19.6503V13.8978H16.8985C17.0569 13.8978 17.1852 13.7713 17.1852 13.6151L17.186 11.3353C17.186 11.2603 17.1558 11.1885 17.1021 11.1354C17.0484 11.0823 16.9753 11.0525 16.8992 11.0525H14.755V9.71863C14.755 9.07754 14.9099 8.75209 15.7567 8.75209L16.9849 8.75165C17.1432 8.75165 17.2715 8.62499 17.2715 8.46891V6.35204C17.2715 6.1961 17.1433 6.06958 16.9852 6.06929Z" fill="white"/>
</svg>
