<svg width="27" height="26" viewBox="0 0 27 26" fill="none" xmlns="http://www.w3.org/2000/svg">
<ellipse cx="13.6871" cy="13" rx="13.1812" ry="13" fill="#FF0000"/>
<path d="M20.4275 10.1587C20.2655 9.57542 19.7906 9.11559 19.1884 8.95853C18.0881 8.66699 13.6871 8.66699 13.6871 8.66699C13.6871 8.66699 9.28619 8.66699 8.18594 8.94747C7.59528 9.10437 7.10879 9.5755 6.94677 10.1587C6.65723 11.2241 6.65723 13.4337 6.65723 13.4337C6.65723 13.4337 6.65723 15.6543 6.94677 16.7086C7.10896 17.2918 7.58369 17.7516 8.18603 17.9087C9.29777 18.2003 13.6872 18.2003 13.6872 18.2003C13.6872 18.2003 18.0881 18.2003 19.1884 17.9198C19.7907 17.7629 20.2655 17.303 20.4277 16.7198C20.7172 15.6543 20.7172 13.4449 20.7172 13.4449C20.7172 13.4449 20.7287 11.2241 20.4275 10.1587ZM12.2859 15.4749V11.3924L15.9456 13.4337L12.2859 15.4749Z" fill="white"/>
</svg>
