<svg width="77" height="71" viewBox="0 0 77 71" fill="none" xmlns="http://www.w3.org/2000/svg">
<path opacity="0.05" d="M28.4297 40.0625V70.6777H0.158203V46.5078C0.158203 33.4219 1.7207 23.9492 4.8457 18.0898C8.94727 10.2773 15.4414 4.36914 24.3281 0.365234L30.7734 10.6191C25.4023 12.8652 21.4473 16.2344 18.9082 20.7266C16.3691 25.1211 14.9531 31.5664 14.6602 40.0625H28.4297ZM73.8398 40.0625V70.6777H45.5684V46.5078C45.5684 33.4219 47.1309 23.9492 50.2559 18.0898C54.3574 10.2773 60.8516 4.36914 69.7383 0.365234L76.1836 10.6191C70.8125 12.8652 66.8574 16.2344 64.3184 20.7266C61.7793 25.1211 60.3633 31.5664 60.0703 40.0625H73.8398Z" fill="black"/>
</svg>
